<?xml version="1.0" standalone="no"?><!DOCTYPE svg PUBLIC "-//W3C//DTD SVG 1.1//EN" "http://www.w3.org/Graphics/SVG/1.1/DTD/svg11.dtd"><svg height="2813" node-id="1" sillyvg="true" template-height="2813" template-width="1583" version="1.1" viewBox="0 0 1583 2813" width="1583" xmlns="http://www.w3.org/2000/svg" xmlns:xlink="http://www.w3.org/1999/xlink"><defs node-id="41"><clipPath id="clip0_102_51" node-id="38"><path d="M 0.00 0.00 L 1582.12 0.00 L 1582.12 2812.66 L 0.00 2812.66 Z" fill="#000000" fill-rule="nonzero" node-id="44" stroke="none" target-height="2812.66" target-width="1582.12" target-x="0" target-y="0"></path></clipPath></defs><g clip-path="url(#clip0_102_51)" id="sillyvg_g_0" node-id="48"><path d="M 0.00 0.00 L 1582.12 0.00 L 1582.12 2812.66 L 0.00 2812.66 Z" fill="#ffffff" fill-rule="nonzero" node-id="50" stroke="none" target-height="2812.66" target-width="1582.12" target-x="0" target-y="0"></path><path d="M 795.10 2633.31 C 794.60 2638.95 752.39 2639.87 700.81 2635.36 C 649.22 2630.84 607.81 2622.61 608.30 2616.97 C 608.79 2611.33 651.01 2610.41 702.59 2614.92 C 754.17 2619.44 795.59 2627.67 795.10 2633.31 Z" fill="#147fdf" fill-rule="nonzero" group-id="1" node-id="54" stroke="none" target-height="29.456543" target-width="187.78296" target-x="607.8075" target-y="2610.4116"></path><path d="M 0.00 0.00 L 1582.12 0.00 L 1582.12 773.48 L 0.00 773.48 Z" fill="#036fde" fill-rule="nonzero" node-id="57" stroke="none" target-height="773.48" target-width="1582.12" target-x="0" target-y="0"></path><path d="M 923.04 139.17 L 903.20 139.17 L 407.25 1363.11 L 453.54 1807.72 L 581.38 1709.57 L 645.31 1527.18 L 819.44 1444.42 L 891.45 1261.30 L 1108.93 1160.22 L 1178.73 977.11 L 1392.54 872.36 L 1401.36 835.01 L 1585.05 722.21 L 1585.05 445.34 L 1447.65 400.66 L 1371.97 319.35 L 1239.72 312.76 L 1158.90 273.94 L 1129.51 212.41 L 923.04 139.17 Z" fill="#ffffff" fill-rule="nonzero" node-id="59" stroke="none" target-height="1668.552" target-width="1177.801" target-x="407.249" target-y="139.168"></path><path d="M -5.86 2119.75 L 1582.12 1355.79 L 1582.12 2703.52 L -5.86 2457.41 L -5.86 2119.75 Z" fill="#147fdf" fill-rule="nonzero" node-id="61" stroke="none" target-height="1347.73" target-width="1587.9797" target-x="-5.85968" target-y="1355.79"></path><path d="M 564.20 1710.24 L 625.66 1515.27 L 806.30 1431.72 L 879.75 1245.55 L 1112.85 1140.73 L 1164.57 969.96 L 1397.67 865.14 L 1397.67 826.30 L 1585.05 709.02 L 1585.05 1321.04 L 1312.22 1488.89 L 1070.13 1593.70 L 426.29 1803.32 L 564.20 1710.24 Z" fill="#157bdf" fill-rule="nonzero" node-id="63" stroke="none" target-height="1094.2969" target-width="1158.7571" target-x="426.293" target-y="709.023"></path><path d="M 432.15 1538.17 L 0.73 1668.55 L 0.73 1806.25 L 432.15 1538.17 Z" fill="#368fe1" fill-rule="nonzero" node-id="65" stroke="none" target-height="268.07996" target-width="431.4206" target-x="0.732422" target-y="1538.17"></path><path d="M 200.69 1508.87 L 0.73 1585.05 L 0.73 605.01 L 87.16 583.77 L 330.34 403.59 L 473.17 403.59 L 524.44 386.01 L 665.81 254.16 L 777.14 215.34 L 796.92 189.71 L 895.07 133.31 L 928.03 168.47 L 883.35 303.24 L 965.38 454.13 L 857.71 670.20 L 895.07 760.30 L 835.74 942.68 L 928.03 791.79 L 979.30 917.04 L 857.71 1044.49 L 835.74 1100.89 L 835.74 1117.01 L 777.14 1201.24 L 677.53 1232.73 L 555.94 1281.81 L 463.65 1349.93 L 350.12 1349.93 L 212.41 1383.62 L 292.99 1383.62 L 200.69 1508.87 Z" fill="#3893e5" fill-rule="nonzero" node-id="67" stroke="none" target-height="1451.7421" target-width="978.5696" target-x="0.732422" target-y="133.308"></path><path d="M 344.26 414.57 L 323.75 402.85 L 364.03 402.85 L 458.52 396.26 L 522.25 383.08 L 528.11 414.57 L 513.46 414.57 L 495.14 462.92 L 495.14 483.43 L 484.16 483.43 L 427.76 573.52 L 427.76 608.68 L 391.14 645.30 L 354.51 720.01 L 372.82 620.40 L 378.68 569.12 L 344.26 535.43 L 344.26 507.60 L 350.12 483.43 L 344.26 414.57 Z" fill="#ffffff" fill-rule="nonzero" node-id="69" stroke="none" target-height="336.932" target-width="204.357" target-x="323.748" target-y="383.078"></path><path d="M 714.15 670.20 L 728.07 659.95 L 733.20 670.20 L 884.08 616.73 L 869.43 643.10 L 840.13 670.20 L 811.57 679.73 L 823.29 648.23 L 742.72 679.73 L 738.32 695.11 L 714.15 695.11 L 695.84 670.20 L 714.15 670.20 Z" fill="#ffffff" fill-rule="nonzero" node-id="71" stroke="none" target-height="78.37402" target-width="188.24298" target-x="695.839" target-y="616.733"></path><path d="M 554.47 837.94 L 554.47 830.61 L 576.45 817.43 L 607.21 803.51 L 632.85 784.47 L 648.23 784.47 L 657.02 763.96 L 778.61 709.02 L 678.99 768.35 L 671.67 797.65 L 662.15 787.40 L 627.72 807.91 L 619.66 821.82 L 613.07 817.43 L 594.76 821.82 L 584.50 837.94 L 570.59 830.61 L 554.47 837.94 Z" fill="#ffffff" fill-rule="nonzero" node-id="73" stroke="none" target-height="128.914" target-width="224.133" target-x="554.474" target-y="709.023"></path><path d="M 1251.78 1148.50 L 1233.47 1131.65 L 1263.50 1144.84 L 1259.10 1158.02 L 1272.29 1161.69 L 1286.94 1161.69 L 1307.45 1208.56 L 1332.35 1218.82 L 1343.34 1229.80 L 1354.32 1221.75 L 1354.32 1242.99 L 1361.65 1279.61 L 1377.76 1319.90 L 1335.28 1261.30 L 1326.49 1235.66 L 1283.27 1221.75 L 1283.27 1172.67 L 1247.38 1164.61 L 1251.78 1148.50 Z" fill="#ffffff" fill-rule="nonzero" node-id="75" stroke="none" target-height="188.25" target-width="144.29004" target-x="1233.47" target-y="1131.65"></path><path d="M 145.03 1626.07 L 101.81 1542.57 L 184.58 1511.80 L 220.47 1566.00 L 220.47 1605.56 L 145.03 1626.07 Z" fill="#98bee3" fill-rule="nonzero" node-id="77" stroke="none" target-height="114.2699" target-width="118.659" target-x="101.812" target-y="1511.8"></path><path d="M 481.23 1346.27 L 461.45 1346.27 L 481.23 1395.34 L 517.12 1425.37 L 530.30 1454.67 L 709.02 1370.44 L 664.34 1381.42 L 573.52 1395.34 L 517.12 1388.02 L 481.23 1346.27 Z" fill="#98bee3" fill-rule="nonzero" node-id="79" stroke="none" target-height="108.400024" target-width="247.57202" target-x="461.451" target-y="1346.27"></path><path d="M 913.38 1021.05 L 900.93 1035.70 L 968.31 1058.41 L 913.38 1021.05 Z" fill="#98bee3" fill-rule="nonzero" node-id="81" stroke="none" target-height="37.360046" target-width="67.385925" target-x="900.929" target-y="1021.05"></path><path d="M 884.08 1042.29 L 869.43 1054.75 L 997.61 1097.96 L 1006.40 1086.97 L 884.08 1042.29 Z" fill="#98bee3" fill-rule="nonzero" node-id="83" stroke="none" target-height="55.66992" target-width="136.96704" target-x="869.43304" target-y="1042.29"></path><path d="M 870.90 1066.46 L 865.04 1073.79 L 966.12 1108.95 L 978.57 1100.89 L 870.90 1066.46 Z" fill="#98bee3" fill-rule="nonzero" node-id="85" stroke="none" target-height="42.48999" target-width="113.53198" target-x="865.038" target-y="1066.46"></path><path d="M 861.38 1078.92 L 854.05 1088.44 L 938.28 1125.79 L 953.67 1115.54 L 861.38 1078.92 Z" fill="#98bee3" fill-rule="nonzero" node-id="87" stroke="none" target-height="46.869995" target-width="99.61493" target-x="854.0511" target-y="1078.92"></path><path d="M 842.33 1097.96 L 832.81 1111.88 L 908.25 1141.18 L 929.49 1130.19 L 842.33 1097.96 Z" fill="#98bee3" fill-rule="nonzero" node-id="89" stroke="none" target-height="43.220093" target-width="96.68494" target-x="832.81" target-y="1097.96"></path><path d="M 773.48 1203.44 L 829.88 1126.53 L 898.00 1149.23 L 773.48 1203.44 Z" fill="#98bee3" fill-rule="nonzero" node-id="91" stroke="none" target-height="76.90991" target-width="124.51904" target-x="773.48" target-y="1126.53"></path><path d="M 1093.57 587.43 L 1093.57 525.91 L 1151.43 568.39 L 1151.43 624.79 L 1093.57 587.43 Z" fill="#3893e5" fill-rule="nonzero" node-id="93" stroke="none" target-height="98.88196" target-width="57.860107" target-x="1093.57" target-y="525.908"></path><path d="M 1282.54 676.79 L 1212.22 686.32 L 1217.11 612.42 L 1282.54 676.79 Z" fill="#3893e5" fill-rule="nonzero" node-id="95" stroke="none" target-height="73.89899" target-width="70.32007" target-x="1212.22" target-y="612.418"></path><path d="M 1305.98 641.64 L 1295.73 676.06 L 1321.36 714.88 L 1368.97 747.84 L 1389.48 750.77 L 1396.81 744.91 L 1376.30 709.76 L 1366.04 709.76 L 1353.59 688.51 L 1376.30 684.85 L 1357.25 654.82 L 1305.98 641.64 Z" fill="#3893e5" fill-rule="nonzero" node-id="97" stroke="none" target-height="109.137024" target-width="101.08008" target-x="1295.73" target-y="641.637"></path><path d="M 1175.52 282.38 C 1175.08 282.62 1174.65 282.85 1174.22 283.08 C 1176.93 288.98 1179.56 294.79 1182.23 300.71 C 1221.76 388.17 1256.54 477.06 1290.50 566.51 C 1297.62 585.19 1306.34 603.29 1316.73 620.80 C 1320.07 626.43 1323.58 632.00 1327.27 637.50 C 1327.73 637.33 1328.18 637.16 1328.64 636.99 C 1327.85 630.42 1326.88 623.90 1325.73 617.46 C 1322.15 597.40 1316.82 577.97 1309.66 559.20 C 1275.58 469.39 1235.09 381.40 1185.59 298.95 C 1182.25 293.38 1178.93 287.92 1175.52 282.38 Z" fill="#98bee3" fill-rule="nonzero" node-id="99" stroke="none" target-height="355.112" target-width="154.42004" target-x="1174.22" target-y="282.385"></path><path d="M 325.21 733.20 L 313.49 668.74 L 305.44 710.49 L 313.49 769.82 L 338.40 780.80 L 325.21 733.20 Z" fill="#ffffff" fill-rule="nonzero" node-id="101" stroke="none" target-height="112.06702" target-width="32.961" target-x="305.437" target-y="668.738"></path><path d="M 805.12 2457.02 C 803.28 2453.89 805.21 2449.90 804.39 2446.76 C 803.54 2443.52 798.85 2443.03 795.60 2443.83 C 792.04 2444.71 791.04 2447.00 789.74 2450.42 C 788.21 2454.43 787.06 2457.33 789.74 2460.68 C 792.67 2464.34 796.42 2466.65 800.58 2469.86 C 805.23 2473.45 813.03 2482.31 813.03 2482.31 C 813.03 2482.31 812.44 2469.47 805.12 2457.02 Z" fill="#ffffff" fill-rule="nonzero" node-id="103" stroke="none" target-height="39.28003" target-width="25.976013" target-x="787.05695" target-y="2443.03"></path><path d="M 815.85 2535.39 C 815.44 2535.65 815.02 2535.92 814.61 2536.18 C 814.87 2537.47 815.09 2538.72 815.27 2539.96 C 816.39 2547.55 816.46 2554.20 816.45 2560.93 C 816.32 2573.96 812.38 2587.31 804.41 2599.56 C 803.74 2600.59 803.03 2601.61 802.29 2602.62 C 802.62 2602.99 802.94 2603.35 803.26 2603.72 C 804.38 2603.08 805.47 2602.40 806.54 2601.67 C 819.28 2593.05 828.11 2577.47 828.16 2561.00 C 828.25 2552.54 824.93 2543.90 818.94 2538.03 C 817.97 2537.07 816.93 2536.19 815.85 2535.39 Z" fill="#ffffff" fill-rule="nonzero" node-id="105" stroke="none" target-height="68.33008" target-width="25.962097" target-x="802.29193" target-y="2535.39"></path><path d="M 832.87 2428.86 C 818.41 2431.63 810.17 2446.44 804.31 2447.91 C 798.45 2449.37 799.68 2447.20 796.25 2448.64 C 793.45 2449.81 791.79 2451.07 790.39 2453.77 C 788.42 2457.59 788.47 2460.91 790.39 2464.75 C 794.05 2472.08 803.28 2473.60 809.44 2480.87 C 817.31 2490.15 824.82 2507.97 824.82 2507.97 C 824.82 2507.97 840.36 2531.21 842.40 2548.25 C 843.62 2558.49 845.64 2565.45 840.93 2574.62 C 839.15 2578.08 835.07 2582.68 835.07 2582.68 C 835.07 2582.68 834.09 2575.45 832.87 2570.96 C 829.29 2557.74 816.03 2540.20 816.03 2540.20 C 816.03 2540.20 821.23 2562.37 818.23 2576.09 C 817.06 2581.39 815.81 2584.22 813.83 2589.27 C 809.95 2599.16 800.88 2602.84 801.38 2613.44 C 801.47 2615.46 801.50 2616.64 802.11 2618.57 C 804.20 2625.17 814.88 2622.73 816.03 2629.56 C 815.29 2635.42 803.58 2633.95 796.25 2633.95 C 788.44 2633.95 787.46 2616.37 787.46 2616.37 L 777.21 2616.37 L 779.41 2628.09 C 779.68 2629.56 770.44 2629.52 764.75 2628.82 C 761.30 2628.40 757.72 2628.90 755.97 2625.89 C 754.81 2623.92 754.79 2622.00 755.97 2620.04 C 757.50 2617.48 762.01 2620.54 763.29 2617.84 C 764.02 2616.29 764.29 2614.84 763.29 2613.44 C 762.69 2612.61 761.75 2612.78 761.09 2611.98 C 754.50 2603.92 753.26 2598.10 749.37 2587.07 C 747.57 2581.96 746.95 2576.24 745.71 2570.96 C 742.57 2557.60 745.71 2535.80 745.71 2535.80 L 735.46 2565.83 C 735.46 2565.83 732.79 2553.86 732.53 2546.06 C 732.19 2535.99 733.15 2530.23 735.46 2520.42 C 738.56 2507.18 741.46 2499.74 748.64 2488.19 C 754.54 2478.71 761.85 2476.05 765.49 2465.49 C 767.28 2460.28 767.60 2457.58 769.15 2452.30 C 772.25 2441.71 773.75 2432.69 783.80 2428.13 C 788.04 2426.21 790.87 2426.13 795.52 2425.93 C 803.09 2425.61 807.00 2429.89 814.56 2429.59 C 818.32 2429.45 820.32 2428.17 824.09 2428.13 C 828.13 2428.09 832.87 2428.86 832.87 2428.86 Z" fill="#000000" fill-rule="nonzero" node-id="107" stroke="none" target-height="209.80981" target-width="113.453" target-x="732.192" target-y="2425.61"></path><path d="M 1330.50 473.20 C 1330.76 475.13 1331.01 477.07 1331.27 479.00 C 1334.95 478.33 1338.63 477.66 1342.31 477.00 C 1376.48 470.90 1410.75 465.58 1445.12 461.05 C 1447.82 460.70 1450.51 460.35 1453.21 460.00 L 1453.21 460.00 L 1453.22 460.00 C 1456.17 455.61 1459.13 451.24 1462.11 446.88 L 1461.99 446.94 C 1486.58 447.24 1511.17 447.97 1535.75 449.16 C 1539.49 449.34 1543.22 449.53 1546.96 449.73 C 1546.96 447.78 1546.96 445.82 1546.96 443.87 C 1543.22 444.07 1539.49 444.26 1535.75 444.44 C 1511.17 445.63 1486.58 446.37 1461.99 446.66 L 1461.92 446.66 L 1461.88 446.72 C 1459.00 451.15 1456.10 455.57 1453.19 459.98 L 1453.20 459.97 C 1450.51 460.34 1447.82 460.70 1445.12 461.05 C 1410.75 465.58 1376.27 469.32 1341.69 472.27 C 1337.96 472.59 1334.23 472.90 1330.50 473.20 Z" fill="#98bee3" fill-rule="nonzero" node-id="109" stroke="none" target-height="35.132996" target-width="216.45996" target-x="1330.5" target-y="443.872"></path><path d="M 1434.89 504.67 C 1434.89 505.64 1434.89 506.62 1434.89 507.60 C 1437.24 507.89 1439.58 508.17 1441.93 508.43 C 1462.95 510.81 1483.98 511.99 1505.00 511.99 C 1526.17 511.99 1547.33 510.80 1568.49 508.43 C 1570.84 508.17 1573.18 507.89 1575.53 507.60 C 1575.53 506.62 1575.53 505.64 1575.53 504.67 C 1573.18 504.37 1570.84 504.10 1568.49 503.83 C 1547.33 501.46 1526.17 500.27 1505.00 500.27 C 1483.98 500.27 1462.95 501.46 1441.93 503.83 C 1439.58 504.09 1437.24 504.37 1434.89 504.67 Z" fill="#98bee3" fill-rule="nonzero" node-id="111" stroke="none" target-height="11.718994" target-width="140.6399" target-x="1434.8901" target-y="500.272"></path><path d="M 413.11 422.63 L 379.42 433.62 L 399.92 459.99 L 416.04 433.62 L 413.11 422.63 Z" fill="#3893e5" fill-rule="nonzero" node-id="113" stroke="none" target-height="37.35498" target-width="36.623993" target-x="379.415" target-y="422.631"></path><path d="M 429.22 472.44 L 406.52 481.96 L 398.46 472.44 L 416.77 446.80 L 434.35 440.94 L 444.61 454.13 L 429.22 472.44 Z" fill="#3893e5" fill-rule="nonzero" node-id="115" stroke="none" target-height="41.018005" target-width="46.146027" target-x="398.459" target-y="440.942"></path><path d="M 476.83 432.88 L 487.09 426.29 L 497.34 443.14 L 473.90 460.72 L 468.78 450.46 L 462.92 447.53 L 462.92 432.88 L 476.83 432.88 Z" fill="#3893e5" fill-rule="nonzero" node-id="117" stroke="none" target-height="34.425995" target-width="34.426025" target-x="462.916" target-y="426.293"></path><path d="M 435.81 474.64 L 446.80 461.45 L 455.59 465.85 L 443.87 480.50 L 435.81 474.64 Z" fill="#3893e5" fill-rule="nonzero" node-id="119" stroke="none" target-height="19.044006" target-width="19.777008" target-x="435.815" target-y="461.451"></path></g></svg>